# xmcd CD database file generated by Grip 3.3.1
# 
# Track frame offsets:
#       150
#       13853
#       26279
#       40187
#       53167
#       63287
#       77232
#       90580
#       101034
#       115983
#       128405
#       138768
#       151661
#       162528
#       175955
#       190474
#       202715
#       212616
#       224529
#       236639
#       247978
#       261171
#       274551
#       286591
#       297886
#       310286
#       322520
#       333562
#       345625
# 
# Disc length: 4778 seconds
# 
# Revision: 5
# Processed by: cddbd v1.5.2PL0 Copyright (c) Steve Scherf et al.
# Submitted via: Grip 3.3.1
# 
DISCID=9312a81d
DTITLE=Various Artist - Bluegrass Bonanza Classic Bluegrass 1946-1950
DYEAR=1946
DGENRE=Bluegrass
TTITLE0=Bill Monroe - Blue Moon Of Kentucky
TTITLE1=Bill Monroe - Toy Heart
TTITLE2=Bill Monroe - Blue Yodel No. 4
TTITLE3=Bill Monroe - Will You Be Loving Another Man
TTITLE4=Stanley Brothers - Girl Behind The Bar, The
TTITLE5=Stanley Brothers - Little Glass Of Wine, The
TTITLE6=Bill Monroe - My Rose Of Old Kentucky
TTITLE7=Bill Monroe - Bluegrass Breakdown
TTITLE8=Bill Monroe - Sweetheart You Done Me Wrong
TTITLE9=Bill Monroe - When You Are Lonely
TTITLE10=Stanley Brothers - Little Maggie
TTITLE11=Grandpa Jones - Old Rattler
TTITLE12=Stanley Brothers - Molly And Tenbrooks
TTITLE13=Bill Monroe - Bluegrass Stomp
TTITLE14=Bill Monroe - The Girl In The Blue Velvet Band
TTITLE15=Flatt and Scruggs - We'll Meet Again Sweetheart
TTITLE16=Stanley Brothers - Our Darling's Gone
TTITLE17=Flatt and Scruggs - Is It Too Late
TTITLE18=Molly O'Day - Poor Ellen Smith
TTITLE19=Flatt and Scruggs - So Happy I'll Be
TTITLE20=Flatt and Scruggs - God Loves His Children
TTITLE21=Flatt and Scruggs - Baby Blue Eyes
TTITLE22=Flatt and Scruggs - Why Don't You Tell Me So
TTITLE23=Bill Monroe - New Mule Skinner Blues
TTITLE24=Bill Monroe - Uncle Penn
TTITLE25=Flatt and Scruggs - My Little Girl In Tennessee
TTITLE26=Flatt and Scruggs - I'll Never Shed Another Tear
TTITLE27=Flatt and Scruggs - Foggy Mountain Breakdown
TTITLE28=Bill Monroe - I'm Blue And I'm Lonesome
EXTD=ID3G:  17 YEAR: 1946
EXTT0=Bill Monroe
EXTT1=Bill Monroe
EXTT2=Bill Monroe
EXTT3=Bill Monroe
EXTT4=Stanley Brothers
EXTT5=Stanley Brothers
EXTT6=Bill Monroe
EXTT7=Bill Monroe
EXTT8=Bill Monroe
EXTT9=Bill Monroe
EXTT10=Stanley Brothers
EXTT11=Grandpa Jones
EXTT12=Stanley Brothers
EXTT13=Bill Monroe
EXTT14=Bill Monroe
EXTT15=Flatt and Scruggs
EXTT16=Stanley Brothers
EXTT17=Flatt and Scruggs
EXTT18=Molly O'Day
EXTT19=Flatt and Scruggs
EXTT20=Flatt and Scruggs
EXTT21=Flatt and Scruggs
EXTT22=Flatt and Scruggs
EXTT23=Bill Monroe
EXTT24=Bill Monroe
EXTT25=Flatt and Scruggs
EXTT26=Flatt and Scruggs
EXTT27=Flatt and Scruggs
EXTT28=Bill Monroe
PLAYORDER=
